<svg id="Camada_1" data-name="Camada 1" xmlns="http://www.w3.org/2000/svg" viewBox="0 0 896.31 204.13"><defs><linearGradient id="Gradiente_sem_nome_6" x1="715.6" y1="-16.5" x2="837.1" y2="-177" gradientTransform="matrix(1 0 0 -1 0 8)" gradientUnits="userSpaceOnUse"><stop offset=".01" stop-color="#65f5c2"/><stop offset=".99" stop-color="#41c8ca"/></linearGradient><style>.cls-2,.cls-3{fill:#fff}.cls-3{fill-rule:evenodd}</style></defs><circle cx="326.06" cy="102.06" r="102.06" fill="#1896a4"/><path class="cls-2" d="M326 61a25.5 25.5 0 1026 25.5A25.76 25.76 0 00326 61zm0 41.53c-8.79 0-16.33-7-16.33-15.61a17.6 17.6 0 011.11-6.14l7 2.93q0 .15-.09.36a8.57 8.57 0 00-.37 2.07 3 3 0 000 .42v.09a8.54 8.54 0 008.73 8.35 8.92 8.92 0 001.86-.22l4 6.64a16.3 16.3 0 01-5.91 1.11zm15.07-9.69l-17.81-7.4h11.42C334.27 81.33 330 78 326 78a8.41 8.41 0 00-2.68.44l-3.95-6.58a16.08 16.08 0 016.63-1.38c8.79 0 16.3 7.11 16.3 15.73a15.83 15.83 0 01-1.23 6.63z"/><path class="cls-3" d="M306 130.1V144h4v-21h-4.3l-6.21 12-6.16-12H289v21h4v-13.9l5.36 10.35h2.2zm23 10.32V144h-15v-21h14.73v3.58H318.2v5.06h9.1V135h-9.1v5.47zm11.68-17.36h3.86L347 130l2.43-6.95h3.89l-3.68 9.55 2.73 6.72 6.08-16.32H363l-8.77 21h-3.53l-3.7-8.81-3.77 8.81h-3.52L331 123h4.49l6.14 16.33 2.67-6.72z"/><circle cx="102.06" cy="102.06" r="102.06" fill="#3275bb"/><path class="cls-3" d="M101.28 53.42a1.92 1.92 0 012.4 0c7.51 6 16.11 5.94 19.35 5.92h.44a1.91 1.91 0 011.4.6 2 2 0 01.56 1.44 174 174 0 01-1.34 21.84c-.79 5.24-2 8.86-3.81 11.64a20.67 20.67 0 01-7 6.24c-.91.56-1.85 1.11-2.84 1.69-2 1.18-4.29 2.49-6.92 4.29a2 2 0 01-2.17 0c-2.62-1.8-4.86-3.1-6.9-4.29-1-.58-1.94-1.13-2.85-1.69a20.64 20.64 0 01-7-6.24c-1.82-2.78-3-6.4-3.8-11.64a176 176 0 01-1.34-21.84 2.06 2.06 0 01.57-1.44 1.89 1.89 0 011.39-.6H82c3.17.02 11.76.07 19.28-5.92zM83.5 63.35a158.67 158.67 0 001.26 19.26c.74 5 1.8 7.92 3.17 10a16.8 16.8 0 005.71 5c.79.49 1.66 1 2.61 1.55 1.82 1.06 3.92 2.28 6.23 3.8 2.31-1.52 4.42-2.75 6.24-3.81 1-.55 1.82-1.06 2.6-1.54a16.76 16.76 0 005.72-5c1.37-2.08 2.44-5 3.18-10a156.64 156.64 0 001.26-19.26 33.29 33.29 0 01-19-5.85 33.26 33.26 0 01-18.98 5.85z"/><path class="cls-2" d="M85.46 122.25h-3.82v10.19h-2.58v-10.19h-3.77v-2h10.17zm6.1 5.71h-2v4.48h-2.62v-12.23h4.64a5.32 5.32 0 013.42 1 3.29 3.29 0 011.2 2.73 3.72 3.72 0 01-.56 2.09 3.78 3.78 0 01-1.64 1.3l2.7 5v.12h-2.79zm-2-2h2.08a2.19 2.19 0 001.5-.47 1.71 1.71 0 00.53-1.34 1.84 1.84 0 00-.5-1.36 2.13 2.13 0 00-1.54-.5h-2.12zm18.11-5.71v8.06a4.06 4.06 0 01-1.29 3.17 5 5 0 01-3.5 1.17 5.11 5.11 0 01-3.48-1.13 4.06 4.06 0 01-1.4-3.16v-8.15h2.58v8.07a2 2 0 002.21 2.31 2 2 0 002.2-2.24v-8.14zm8.59 9a1.28 1.28 0 00-.52-1.09 6.57 6.57 0 00-1.85-.8 14.1 14.1 0 01-2.12-.84 3.41 3.41 0 01-2.13-3 2.87 2.87 0 01.57-1.76 3.74 3.74 0 011.63-1.22 6.39 6.39 0 012.41-.44 5.62 5.62 0 012.38.48 3.8 3.8 0 011.63 1.34 3.5 3.5 0 01.58 2h-2.58a1.62 1.62 0 00-.54-1.3 2.25 2.25 0 00-1.52-.47 2.35 2.35 0 00-1.46.4 1.21 1.21 0 00-.53 1 1.19 1.19 0 00.61 1 7.26 7.26 0 001.81.76 7.79 7.79 0 013.2 1.6 3.16 3.16 0 011 2.39 2.93 2.93 0 01-1.23 2.49 5.47 5.47 0 01-3.3.9 6.6 6.6 0 01-2.63-.51 4.22 4.22 0 01-1.81-1.42 3.63 3.63 0 01-.62-2.09h2.59c0 1.35.82 2 2.47 2a2.46 2.46 0 001.43-.36 1.21 1.21 0 00.48-1.08zm13.73-7h-3.82v10.19h-2.58v-10.19h-3.77v-2h10.17zm-49.84 21.82l.31 1.52.37-1.45L83 137h.74l2.1 7.17.36 1.46.32-1.53 1.77-7.1h.85l-2.51 9.73h-.79l-2.22-7.61-.25-1-.24 1-2.27 7.61H80L77.52 137h.85zm15.51-.1h-4.44l-1 2.73h-.87l3.7-9.73h.79l3.7 9.73h-.86zm-4.18-.7h3.92l-2-5.3zm8.33 2.73h4.83v.69H99V137h.83zm7.26 0h4.83v.69h-5.66V137h.83zm11.82-4h-4.57v4h5.26v.69h-6.09V137h6.05v.7h-5.22v3.67h4.57zm9.2-4.37h-3.35v9h-.83v-9h-3.34V137h7.52z"/><circle cx="550.19" cy="102.06" r="102.06" fill="#1652f0"/><path class="cls-3" d="M503.61 111a6.49 6.49 0 002.38-.44s1.52 2.38 1.54 2.4a9 9 0 01-4.37 1.07 7.61 7.61 0 01-8-8 7.71 7.71 0 018-8.07 8.23 8.23 0 014.12 1l-1.45 2.48a6.15 6.15 0 00-2.36-.45 4.65 4.65 0 00-4.89 5 4.73 4.73 0 005.03 5.01zm11.74-13.1c4.59 0 7.9 3.27 7.9 8.07a7.88 7.88 0 11-15.76 0c0-4.8 3.31-8.07 7.86-8.07zm0 2.95c-2.55 0-4.41 2-4.41 5.12s1.86 5.07 4.41 5.07 4.45-2 4.45-5.07-1.83-5.12-4.45-5.12zm10.07 12.8V98.24h3.41v15.41zM525 93.51a2.14 2.14 0 014.28 0 2.14 2.14 0 11-4.28 0zm6.84 5.71a20.2 20.2 0 017-1.32c3.9 0 6.38 1.49 6.38 5.84v9.91h-3.38v-9.6c0-2.22-1.38-3-3.28-3a11.72 11.72 0 00-3.31.45v12.17h-3.41V99.22zM548.05 90h3.41v8.66a8.39 8.39 0 013.48-.76c4.42 0 7.73 2.85 7.73 7.79s-3.28 8.31-8.93 8.31a17 17 0 01-5.69-1V90zm3.41 20.73a8.22 8.22 0 002.38.31c3.14 0 5.38-1.73 5.38-5.28a4.52 4.52 0 00-4.69-4.77 6.38 6.38 0 00-3.07.73v9zm21.07-7.41c0-1.67-1.25-2.43-2.93-2.43a8.58 8.58 0 00-4.42 1.25v-3a10.08 10.08 0 015-1.25c3.34 0 5.72 1.39 5.72 5.25v10.19a22.73 22.73 0 01-5.24.63c-4 0-6.86-1.22-6.86-4.7 0-3.13 2.65-4.66 7.07-4.66h1.69v-1.29zm0 3.58h-1.45c-2.38 0-3.93.7-3.93 2.27s1.45 2.22 3.51 2.22a13 13 0 001.87-.17v-4.31zm5.82 2.58a8 8 0 004.66 1.74c1.52 0 2.52-.52 2.52-1.74s-.9-1.71-2.87-2.23c-3.17-.73-4.51-2-4.51-4.69 0-3.13 2.34-4.66 5.44-4.66a7.84 7.84 0 014.41 1.18v3.16a7 7 0 00-4.27-1.56c-1.48 0-2.28.73-2.28 1.74s.66 1.53 2.42 2c3.48.77 5 2.09 5 4.88 0 3.23-2.45 4.69-5.76 4.69a9 9 0 01-4.73-1.25v-3.27zm15.16-2.75v.07a4.68 4.68 0 004.93 4.24 8.64 8.64 0 005.14-1.49v3a9.69 9.69 0 01-5.38 1.45c-4.76 0-8-3.06-8-7.93s3.17-8.17 7.38-8.17c4.44 0 6.55 2.88 6.55 7.09v1.74zm7.41-2.23c-.07-2.4-1.24-3.72-3.45-3.72-2 0-3.41 1.4-3.86 3.73h7.31z"/><circle cx="774.32" cy="102.06" r="102.06" fill="url(#Gradiente_sem_nome_6)"/><path class="cls-3" d="M764.88 63h18.77c4.32 0 5.88.45 7.46 1.3a8.73 8.73 0 013.66 3.7c.85 1.58 1.3 3.15 1.3 7.47v18.75c0 4.32-.45 5.89-1.3 7.47a8.81 8.81 0 01-3.66 3.67c-1.58.84-3.14 1.29-7.46 1.29h-18.77c-4.32 0-5.89-.45-7.46-1.29a8.89 8.89 0 01-3.67-3.67c-.84-1.58-1.29-3.15-1.29-7.47V75.43c0-4.32.45-5.89 1.29-7.47a8.81 8.81 0 013.67-3.66c1.58-.85 3.14-1.3 7.46-1.3zm16.59 7.08a4.93 4.93 0 015.14 4.55 5.76 5.76 0 010 1.31 12.77 12.77 0 01-4.07 7.15 15 15 0 01-5.34 3.1c-.84.34-1.18-.22-.67-.89 1.32-1.69 3.37-5.28.79-6.88-1.53-1-4.06.28-5.62.7a13.56 13.56 0 01-6.34.63 4.9 4.9 0 011.21-9.68zM762 95a5.76 5.76 0 010-1.31 12.81 12.81 0 014.07-7.15 15 15 0 015.34-3.1c.84-.34 1.18.23.67.89-1.32 1.7-3.37 5.28-.79 6.88 1.53 1 4.06-.28 5.62-.7a13.69 13.69 0 016.34-.63 4.9 4.9 0 01-1.21 9.68h-15A4.94 4.94 0 01762 95z"/><path d="M749.28 139.05a1.49 1.49 0 011 .37 1.21 1.21 0 01.4 1 1.25 1.25 0 01-.41 1 1.47 1.47 0 01-1 .38h-13.53a1.46 1.46 0 01-1.06-.42 1.35 1.35 0 01-.43-.95 1.4 1.4 0 01.33-.88L746.69 124h-9.94a1.45 1.45 0 01-1-.38 1.32 1.32 0 01-.4-1 1.24 1.24 0 01.4-.94 1.45 1.45 0 011-.37h12.71a1.62 1.62 0 011.07.4 1.22 1.22 0 01.47 1 1.53 1.53 0 01-.33.88l-12.11 15.51zm14.29-5.57a1.23 1.23 0 01-.45.89 1.38 1.38 0 01-1 .37h-10.43a5 5 0 005.17 4.69 5.69 5.69 0 002.32-.4 6.34 6.34 0 001.57-1.05 1.66 1.66 0 01.86-.27 1.15 1.15 0 01.85.35 1.18 1.18 0 01.34.82 1.43 1.43 0 01-.6 1.11 7 7 0 01-2.28 1.43 7.59 7.59 0 01-2.92.58 8.72 8.72 0 01-4.23-1 7 7 0 01-2.82-2.77 8.06 8.06 0 01-1-4 8.69 8.69 0 011-4.3 7.32 7.32 0 012.7-2.84 7.08 7.08 0 017.17 0 7.29 7.29 0 012.67 2.65 7.5 7.5 0 011.08 3.74zm-7.27-4.84a4.66 4.66 0 00-2.88.92 4.48 4.48 0 00-1.61 2.84h8.76v-.23a3.56 3.56 0 00-1.41-2.54 4.52 4.52 0 00-2.86-.99zm16.32-2.56q5.34 0 5.34 6.3v7.93a1.38 1.38 0 01-1.42 1.4 1.36 1.36 0 01-1-.41 1.38 1.38 0 01-.4-1v-7.9a4.29 4.29 0 00-.8-2.74 3.11 3.11 0 00-2.61-1 4.52 4.52 0 00-2.15.51 4 4 0 00-1.52 1.37 3.49 3.49 0 00-.55 1.88v7.91a1.34 1.34 0 01-.4 1 1.39 1.39 0 01-1 .41 1.36 1.36 0 01-1-.39 1.39 1.39 0 01-.39-1v-12.52a1.42 1.42 0 01.4-1 1.35 1.35 0 011-.4 1.37 1.37 0 011.42 1.4v1a6.31 6.31 0 012.15-2 5.77 5.77 0 012.93-.75zm23 4.9a1.35 1.35 0 011 .4 1.42 1.42 0 01.4 1v6.56a1.37 1.37 0 01-.71 1.22 11.35 11.35 0 01-3 1.36 11.87 11.87 0 01-3.31.48 11 11 0 01-5.45-1.4 10.34 10.34 0 01-3.9-3.81 10.56 10.56 0 010-10.58 10.34 10.34 0 013.9-3.81A11 11 0 01790 121a12.88 12.88 0 012.87.32 9.41 9.41 0 012.48 1 1.6 1.6 0 01.53.5 1.19 1.19 0 01.18.64 1.4 1.4 0 01-.4 1 1.3 1.3 0 01-1 .42 1.5 1.5 0 01-.77-.2 9.31 9.31 0 00-3.92-.88 7.67 7.67 0 00-3.9 1 7.5 7.5 0 00-2.79 2.8 7.64 7.64 0 00-1 3.91 7.68 7.68 0 007.72 7.73 10.64 10.64 0 002.12-.23 8.33 8.33 0 001.92-.62v-4.63h-3.59a1.39 1.39 0 01-1-.4 1.28 1.28 0 01-.42-1 1.32 1.32 0 01.42-1 1.42 1.42 0 011-.39zm17.6 3.09a8.09 8.09 0 01-1 4.08 7.49 7.49 0 01-2.84 2.83 8.22 8.22 0 01-7.93 0 7.4 7.4 0 01-2.83-2.83 8 8 0 01-1-4.08 8.17 8.17 0 011-4.12 7.38 7.38 0 012.83-2.85 8.22 8.22 0 017.93 0 7.48 7.48 0 012.84 2.85 8.26 8.26 0 011.03 4.12zm-2.82 0a5.93 5.93 0 00-.66-2.82 4.88 4.88 0 00-1.82-1.92 4.91 4.91 0 00-6.88 1.92 5.82 5.82 0 00-.67 2.82 5.65 5.65 0 00.67 2.77 4.9 4.9 0 001.81 1.91 5.07 5.07 0 005.07 0 5 5 0 001.82-1.91 5.76 5.76 0 00.69-2.77z" fill="#f8f8f8" fill-rule="evenodd"/><path fill="none" d="M876.2 99.69h20.1v4.74h-20.1z"/></svg>