<svg id="Camada_1" data-name="Camada 1" xmlns="http://www.w3.org/2000/svg" viewBox="0 0 896.51 204.13"><defs><style>.cls-2,.cls-4{fill:#fff}.cls-4{fill-rule:evenodd}</style></defs><circle cx="570.32" cy="102.06" r="102.06" fill="#090620"/><path class="cls-2" d="M535.26 138v-20.64h1.44v19.32h9.91V138zm18.51.29a6.91 6.91 0 01-5.28-2.09 8.38 8.38 0 01-1.89-5.81 8.85 8.85 0 011.81-5.89 5.93 5.93 0 014.92-2.23 5.54 5.54 0 014.34 1.87 7.74 7.74 0 011.59 5.17v1.15h-11.21a6.85 6.85 0 001.52 4.81 5.13 5.13 0 004.2 1.65 11.3 11.3 0 002.31-.21 14.46 14.46 0 002.53-.79v1.36a12.56 12.56 0 01-2.39.79 13.37 13.37 0 01-2.45.22zm-.44-14.72a4.9 4.9 0 00-3.62 1.44 7.1 7.1 0 00-1.58 4.24h9.54a6.47 6.47 0 00-1.16-4.17 3.69 3.69 0 00-3.18-1.47zm13.45-1.22a7.17 7.17 0 012.9.57 6 6 0 012.17 2.08h.07c-.07-1.22-.07-2.37-.07-3.52V116h1.37v22h-.94l-.36-2.37a5.82 5.82 0 01-5.06 2.66 6 6 0 01-4.92-2c-1.16-1.29-1.66-3.23-1.66-5.74a9.9 9.9 0 011.66-6.11 5.71 5.71 0 014.84-2.08zm0 1.22a4.39 4.39 0 00-3.83 1.8 8.58 8.58 0 00-1.3 5.17c0 4.37 1.74 6.53 5.13 6.53a4.66 4.66 0 003.84-1.51c.79-1 1.22-2.66 1.22-5v-.21c0-2.37-.43-4.1-1.22-5.1-.73-1.14-2.03-1.64-3.84-1.64zm21.48-.93v1l-3.19.22a5.36 5.36 0 011.3 3.44 4.6 4.6 0 01-1.52 3.59 5.54 5.54 0 01-4 1.37 6.89 6.89 0 01-1.44-.07 3.75 3.75 0 00-1.3 1 2.14 2.14 0 00-.44 1.29 1.2 1.2 0 00.58 1.08 4 4 0 001.88.36h2.67a6.47 6.47 0 013.84 1 3.55 3.55 0 011.37 3 4.17 4.17 0 01-1.95 3.73 10.23 10.23 0 01-5.64 1.29 7.66 7.66 0 01-4.56-1.15 3.53 3.53 0 01-1.59-3.09 3.79 3.79 0 011-2.65 5.32 5.32 0 012.67-1.44 2.64 2.64 0 01-1.09-.86 1.93 1.93 0 01-.43-1.22 3.34 3.34 0 011.95-2.72 4.51 4.51 0 01-2.1-1.73 4.93 4.93 0 01-.72-2.72 5.14 5.14 0 011.45-3.74 5.58 5.58 0 014-1.36 7 7 0 012.38.29h4.84v.07zm-12.59 17.95c0 2.08 1.59 3.16 4.77 3.16q6.07 0 6.08-3.88a2.19 2.19 0 00-.94-2 5.73 5.73 0 00-3.11-.64h-2.53c-2.82.06-4.27 1.14-4.27 3.37zm1.24-13.21a3.69 3.69 0 001.08 2.8 4.18 4.18 0 002.9 1 4.11 4.11 0 003-1 3.54 3.54 0 001-2.8 3.77 3.77 0 00-1.09-3 4.23 4.23 0 00-3-1 3.78 3.78 0 00-2.89 1.08 3.64 3.64 0 00-1 2.87zM566.62 59h19.84a6.89 6.89 0 016.78 6.91v19.63h-26.62zm-9.43 0h3.33v10.23h-10.26v-3.31a6.94 6.94 0 016.93-6.92zm3.33 16.45h-10.26v10.23h10.26zm25.8 26.55H583V91.77h10.27v3.3a7 7 0 01-6.95 6.93zm-9.44-10.23h-10.26V102h10.26zm-26.62 3.31v-3.31h10.26V102h-3.33a6.94 6.94 0 01-6.93-6.92z"/><path class="cls-2" d="M594.49 138a7 7 0 01-5.33-2.08 8.34 8.34 0 01-1.9-5.81 8.75 8.75 0 011.82-5.88 6 6 0 015-2.23 5.61 5.61 0 014.38 1.87A7.66 7.66 0 01600 129v1.15h-11.21a6.8 6.8 0 001.54 4.81 5.17 5.17 0 004.23 1.65 11.39 11.39 0 002.33-.22 13.1 13.1 0 002.56-.79v1.4a14.62 14.62 0 01-2.41.79 14.46 14.46 0 01-2.55.21zm-.37-14.71a5 5 0 00-3.65 1.44 7.13 7.13 0 00-1.61 4.23h9.64a6.42 6.42 0 00-1.17-4.16 3.73 3.73 0 00-3.21-1.51zm14-1.22a11.66 11.66 0 012.12.22l-.3 1.36a8.73 8.73 0 00-2-.21 4.13 4.13 0 00-3.29 1.64 6.74 6.74 0 00-1.31 4.24v8.39h-1.46v-15.35h1.24l.15 2.8h.07a6.2 6.2 0 012-2.36 5.31 5.31 0 012.8-.73z"/><circle cx="794.45" cy="102.06" r="102.06" fill="#1896a4"/><path class="cls-2" d="M794.38 61a25.5 25.5 0 1026 25.5 25.76 25.76 0 00-26-25.5zm0 41.53c-8.79 0-16.32-7-16.32-15.61a17.55 17.55 0 011.1-6.14l7 2.93c0 .1 0 .22-.09.36a8.1 8.1 0 00-.36 2.07 3 3 0 000 .42.28.28 0 000 .09 8.53 8.53 0 008.73 8.35 9 9 0 001.86-.22l4 6.64a16.26 16.26 0 01-5.92 1.11zm15.07-9.69l-17.8-7.4h11.41c-.41-4.07-4.66-7.37-8.68-7.37a8.35 8.35 0 00-2.67.44l-4-6.58a16 16 0 016.62-1.41c8.79 0 16.3 7.11 16.3 15.73a15.67 15.67 0 01-1.23 6.63z"/><path class="cls-4" d="M774.34 130.1V144h4v-21h-4.3l-6.17 12-6.15-12h-4.34v21h4v-13.9l5.36 10.35H769zm23 10.32V144h-15v-21h14.73v3.58h-10.49v5.06h9.1V135h-9.1v5.47zm11.69-17.36h3.85l2.43 6.95 2.43-6.95h3.89l-3.63 9.55 2.74 6.71 6.1-16.32h4.55l-8.77 21h-3.52l-3.74-8.81-3.74 8.81h-3.52l-8.72-21h4.5l6.12 16.33 2.67-6.72z"/><circle cx="346.19" cy="102.06" r="102.06" fill="#3275bb"/><path class="cls-4" d="M345.41 53.42a1.91 1.91 0 012.39 0c7.52 6 16.11 5.94 19.36 5.92h.44a1.91 1.91 0 011.4.6 2 2 0 01.56 1.44 171.75 171.75 0 01-1.35 21.84c-.78 5.24-2 8.86-3.81 11.64a20.64 20.64 0 01-6.95 6.24c-.91.56-1.86 1.11-2.84 1.69-2.05 1.18-4.29 2.49-6.92 4.28a1.91 1.91 0 01-2.17 0c-2.62-1.79-4.86-3.09-6.9-4.28-1-.58-1.94-1.13-2.86-1.69a20.61 20.61 0 01-6.94-6.24c-1.82-2.78-3-6.4-3.8-11.64a176 176 0 01-1.34-21.84 2.05 2.05 0 01.56-1.44 1.91 1.91 0 011.4-.6h.44c3.22.02 11.81.07 19.33-5.92zm-17.78 9.93a156.64 156.64 0 001.26 19.26c.74 5 1.8 7.92 3.17 10a16.72 16.72 0 005.71 5c.79.49 1.66 1 2.61 1.55 1.82 1 3.92 2.28 6.23 3.8 2.31-1.52 4.42-2.75 6.24-3.81.94-.55 1.81-1.06 2.59-1.54a16.8 16.8 0 005.73-5c1.37-2.09 2.44-5 3.18-10a156.79 156.79 0 001.26-19.26 33.29 33.29 0 01-19-5.85 33.26 33.26 0 01-18.98 5.85z"/><path class="cls-2" d="M329.59 122.25h-3.83v10.19h-2.57v-10.19h-3.77v-2h10.17zm6.1 5.71h-2.05v4.48h-2.57v-12.23h4.64a5.29 5.29 0 013.41 1 3.3 3.3 0 011.21 2.73 3.72 3.72 0 01-.56 2.09 3.81 3.81 0 01-1.68 1.33l2.71 5v.12H338zm-2.05-2h2.08a2.18 2.18 0 001.5-.48 1.71 1.71 0 00.53-1.33 1.8 1.8 0 00-.51-1.36 2.09 2.09 0 00-1.53-.5h-2.07zm18.11-5.71v8.06a4.07 4.07 0 01-1.29 3.17 5 5 0 01-3.5 1.17 5.11 5.11 0 01-3.48-1.13 4 4 0 01-1.31-3.12v-8.15h2.57v8.07a2 2 0 002.22 2.31 2 2 0 002.2-2.24v-8.14zm8.58 9a1.28 1.28 0 00-.51-1.09 6.52 6.52 0 00-1.85-.81 13.21 13.21 0 01-2.12-.83 3.41 3.41 0 01-2.13-3 2.87 2.87 0 01.57-1.76 3.68 3.68 0 011.63-1.22 6.39 6.39 0 012.41-.44 5.65 5.65 0 012.38.48 3.72 3.72 0 011.62 1.34 3.41 3.41 0 01.59 2h-2.58a1.62 1.62 0 00-.54-1.3 2.25 2.25 0 00-1.52-.47 2.31 2.31 0 00-1.46.4 1.21 1.21 0 00-.53 1 1.19 1.19 0 00.61 1 7.26 7.26 0 001.81.76 7.79 7.79 0 013.2 1.6 3.16 3.16 0 011 2.39 2.93 2.93 0 01-1.23 2.49 5.47 5.47 0 01-3.3.9 6.6 6.6 0 01-2.63-.51 4.22 4.22 0 01-1.81-1.42 3.63 3.63 0 01-.62-2.09h2.59c0 1.35.82 2 2.47 2a2.46 2.46 0 001.43-.36 1.2 1.2 0 00.52-1.08zm13.74-7h-3.83v10.19h-2.57v-10.19h-3.78v-2h10.18zm-49.79 21.82l.3 1.52.37-1.45 2.13-7.18h.74l2.1 7.18.36 1.46.32-1.53 1.77-7.11h.85l-2.51 9.74h-.79l-2.22-7.61-.25-1-.24 1-2.27 7.61h-.79l-2.5-9.74h.85zm15.51-.1h-4.44l-1 2.73h-.86l3.7-9.74h.81l3.71 9.74h-.86zm-4.18-.7h3.92l-2-5.3zm8.33 2.74h4.83v.69h-5.66V137h.83zm7.26 0h4.8v.69h-5.67V137h.84zM363 142h-4.58v4h5.26v.69h-6.08V137h6.05v.71h-5.23v3.67H363zm9.2-4.37h-3.35v9H368v-9h-3.3V137h7.52z"/><circle cx="122.06" cy="102.06" r="102.06" fill="#49cc68"/><path class="cls-4" d="M94 141v-1.4a5.6 5.6 0 01-4.19 2c-2.56 0-3.84-1.42-3.84-4V129a.25.25 0 01.24-.25h2.1a.25.25 0 01.25.25v7.58c0 1.94.93 2.56 2.41 2.56a3.87 3.87 0 003-1.63V129a.25.25 0 01.24-.25h2.1a.25.25 0 01.25.25v12a.25.25 0 01-.25.25h-2.1A.25.25 0 0194 141zm8.27-1.48v6.24a.25.25 0 01-.24.25H100a.25.25 0 01-.24-.25V129a.25.25 0 01.24-.25h2.1a.25.25 0 01.24.25v1.45a4.68 4.68 0 013.82-2c3.08 0 5.27 2.43 5.27 6.54s-2.19 6.56-5.27 6.56a4.71 4.71 0 01-3.86-2.04zm6.43-4.52c0 2.43-1.33 4.16-3.37 4.16a3.85 3.85 0 01-3.06-1.71v-4.93a3.81 3.81 0 013.06-1.66c2.07-.01 3.4 1.7 3.4 4.14zm13.3 6.24a.25.25 0 01-.24-.25v-7.61c0-2-.94-2.53-2.39-2.53a3.91 3.91 0 00-3 1.66V141a.25.25 0 01-.24.25H114a.25.25 0 01-.24-.25v-16.75a.25.25 0 01.24-.25h2.11a.25.25 0 01.24.25v6.19a5.51 5.51 0 014.18-2c2.57 0 3.85 1.39 3.85 4V141a.25.25 0 01-.25.25zm4.73-6.25c0-3.6 2.32-6.54 6.11-6.54S139 131.39 139 135s-2.32 6.56-6.11 6.56-6.14-3.01-6.14-6.56zm9.53 0c0 2.22-1.2 4.16-3.42 4.16s-3.42-1.94-3.42-4.16 1.23-4.14 3.42-4.14 3.44 1.94 3.44 4.15zm5.08 6v-16.74a.24.24 0 01.24-.25h2.1a.25.25 0 01.24.25V141a.25.25 0 01-.24.25h-2.1a.24.24 0 01-.22-.25zm14.06 0v-1.45a4.73 4.73 0 01-3.82 2c-3 0-5.27-2.43-5.27-6.56s2.21-6.54 5.27-6.54a4.59 4.59 0 013.82 2v-6.24a.24.24 0 01.24-.25h2.1a.25.25 0 01.24.25V141a.25.25 0 01-.24.25h-2.1a.24.24 0 01-.22-.25zm0-3.52a3.83 3.83 0 01-3.06 1.68c-2.07 0-3.37-1.73-3.37-4.16s1.3-4.14 3.37-4.14a3.83 3.83 0 013.06 1.68zm-28.49-29.71A1.7 1.7 0 01129 109a1.78 1.78 0 01-1.15 2.19 19.36 19.36 0 01-5.61.86h-.22a19 19 0 01-5.65-.88 1.75 1.75 0 01-1.14-2.18 1.69 1.69 0 012.11-1.19 15.78 15.78 0 004.68.73h.22a15.83 15.83 0 004.67-.77zM139.38 72c1.62 4.87 1 11.39-1.55 17.47-3.53 8.3-9.93 14.06-15.61 14.06h-.16c-5.67 0-12.08-5.76-15.61-14.06-2.58-6.08-3.16-12.6-1.55-17.47a17.95 17.95 0 0134.46-.06zm-4.15 16.29a27.83 27.83 0 01-4.12 6.86c1.14-4.65.59-10.66-1.89-16.49a29.4 29.4 0 00-5-8c3.12-2.61 6.37-3.46 8.89-2.26a7.37 7.37 0 013.59 4.55c1.39 4.12.85 9.86-1.47 15.29zm-26.18 0c-2.31-5.43-2.86-11.17-1.46-15.36a7.38 7.38 0 013.6-4.55c2.51-1.2 5.76-.35 8.89 2.26a29.19 29.19 0 00-5 8c-2.48 5.83-3 11.84-1.88 16.49a28.16 28.16 0 01-4.15-6.89zM124.49 100a5.54 5.54 0 01-2.35.54 5.47 5.47 0 01-2.34-.54c-4.8-2.3-5.8-11.56-2.14-20.21a26.37 26.37 0 014.48-7.2 26.52 26.52 0 014.48 7.2c3.68 8.65 2.7 17.91-2.13 20.21zm-2.35 1.85zm8.92-37c-2.87-.13-6 1.14-8.92 3.67-2.92-2.53-6-3.8-8.91-3.68a15 15 0 0117.83 0z"/><path fill="none" d="M0 92.06h20v20H0z"/></svg>