<svg width="186" height="43" fill="none" xmlns="http://www.w3.org/2000/svg"><g clip-path="url(#clip0)" fill="#fff"><path d="M19.404 37.948c-.833 1.646-1.952 2.895-3.33 3.775-1.406.88-3.3 1.305-5.712 1.305-3.243 0-5.77-.936-7.606-2.781C.919 38.374 0 35.734 0 32.3V15.61h4.65v15.867c0 2.412.631 4.257 1.866 5.534 1.234 1.25 3.042 1.902 5.396 1.902 2.67 0 4.707-.795 6.143-2.384 1.435-1.59 2.152-3.946 2.152-7.096V15.611h4.65v26.623H20.18v-4.286h-.775zm71.443 0c-.832 1.646-1.952 2.895-3.33 3.775-1.406.88-3.3 1.305-5.712 1.305-3.243 0-5.77-.936-7.606-2.781-1.837-1.873-2.756-4.513-2.756-7.947V15.61h4.65v15.867c0 2.412.632 4.257 1.866 5.534 1.234 1.25 3.043 1.902 5.396 1.902 2.67 0 4.708-.795 6.143-2.384 1.435-1.59 2.153-3.946 2.153-7.096V15.611h4.65v26.623h-4.65v-4.286h-.804zM58.326 19.726c.89-2.81 3.129-4.2 6.688-4.2h2.267v4.598h-2.956c-2.325 0-4.047.539-5.167 1.646-1.148 1.078-1.722 2.895-1.722 5.364v15.1h-4.65V15.61h4.65v4.087h.89v.028zm62.086-3.746c1.779.738 3.186 1.816 4.219 3.235 1.034 1.39 1.579 3.009 1.665 4.854h-4.908c-.287-3.406-2.698-5.11-7.234-5.11-1.98 0-3.501.37-4.592 1.136-1.091.738-1.636 1.703-1.636 2.867 0 .993.373 1.703 1.119 2.157.746.454 2.009.851 3.818 1.22l4.908 1.022c2.67.54 4.708 1.334 6.143 2.356 1.435 1.022 2.152 2.64 2.152 4.853 0 1.647-.487 3.094-1.435 4.371-.976 1.277-2.325 2.27-4.076 2.98-1.751.71-3.76 1.079-6.027 1.079-4.105 0-7.291-.908-9.53-2.725-2.239-1.816-3.588-4.229-4.047-7.237h4.908c.66 3.917 3.531 5.875 8.64 5.875 2.239 0 3.961-.397 5.138-1.192 1.177-.795 1.751-1.76 1.751-2.895 0-.738-.201-1.334-.603-1.703-.402-.398-.947-.681-1.636-.908-.689-.2-1.837-.483-3.473-.824l-4.909-1.021c-2.382-.483-4.219-1.278-5.539-2.413-1.321-1.135-1.981-2.753-1.981-4.91 0-2.526 1.033-4.513 3.1-5.989s4.736-2.214 8.037-2.214c2.239 0 4.248.398 6.028 1.136zM40.128 38.147h7.75v4.087H44.26c-2.956 0-5.167-.71-6.63-2.157-1.436-1.42-2.182-3.605-2.182-6.557V19.726h-6.2v-4.115h6.2V8.457h4.65v7.152h6.975v4.088h-6.975v18.449h.029zm99.717 0h7.778v4.087h-3.616c-2.957 0-5.167-.71-6.631-2.157-1.435-1.42-2.181-3.605-2.181-6.557V19.726h-6.2v-4.115h6.2V8.457h4.65v7.152h6.975v4.088h-6.975v18.449zm40.099-32.158v20.01h-19.433V5.989h19.433V0h-11.913l-13.576 10.388v6.67c0 8.714 7.233 16.065 16.045 15.895 8.582-.142 15.5-7.096 15.5-15.583V5.99h-6.056z"/></g><defs><clipPath id="clip0"><path d="M0 0h186v43H0V0z" fill="#fff"/></clipPath></defs></svg>